<svg xmlns="http://www.w3.org/2000/svg" viewBox="0 -0.5 49 51" shape-rendering="crispEdges">
<metadata>Made with Pixels to Svg https://codepen.io/shshaw/pen/XbxvNj</metadata>
<path stroke="#000000" d="M26 0h5M25 1h1M31 1h2M24 2h1M33 2h7M23 3h1M40 3h2M22 4h1M42 4h1M21 5h1M36 5h4M43 5h1M20 6h1M35 6h1M40 6h1M44 6h1M19 7h1M35 7h4M41 7h1M44 7h1M18 8h1M36 8h1M39 8h1M42 8h1M45 8h1M17 9h1M37 9h1M40 9h1M42 9h1M45 9h1M16 10h1M38 10h1M40 10h1M42 10h1M45 10h1M15 11h1M39 11h2M42 11h1M45 11h1M14 12h1M40 12h2M45 12h1M14 13h1M45 13h1M14 14h1M45 14h1M14 15h1M46 15h1M14 16h1M46 16h1M14 17h1M47 17h1M15 18h1M47 18h1M15 19h1M47 19h1M15 20h1M47 20h1M14 21h1M47 21h1M14 22h1M46 22h1M14 23h1M16 23h1M20 23h1M45 23h1M15 24h1M21 24h1M44 24h1M14 25h1M22 25h1M43 25h1M13 26h1M21 26h1M42 26h1M12 27h1M20 27h1M41 27h1M11 28h1M19 28h1M40 28h1M10 29h1M18 29h1M39 29h1M10 30h1M17 30h1M38 30h1M8 31h3M16 31h1M37 31h1M7 32h1M15 32h1M23 32h1M27 32h3M36 32h1M6 33h1M14 33h1M22 33h1M24 33h1M26 33h1M30 33h6M6 34h1M13 34h1M21 34h1M25 34h1M6 35h1M12 35h1M20 35h1M3 36h4M11 36h1M19 36h1M2 37h1M10 37h1M18 37h1M1 38h1M9 38h1M17 38h1M0 39h1M8 39h1M16 39h1M0 40h1M7 40h1M15 40h1M0 41h1M6 41h1M14 41h1M0 42h1M5 42h1M13 42h1M0 43h1M4 43h1M12 43h1M0 44h1M3 44h1M11 44h1M0 45h1M2 45h1M10 45h1M1 46h1M9 46h1M2 47h1M8 47h1M3 48h5" />
<path stroke="#ffff66" d="M26 1h5M25 2h1M31 2h2M24 3h1M33 3h7M23 4h1M40 4h2M22 5h1M35 5h1M42 5h1M21 6h1M34 6h1M43 6h1M20 7h4M25 7h1M27 7h3M32 7h3M42 7h2M19 8h1M24 8h2M35 8h1M44 8h1M18 9h4M24 9h1M26 9h2M29 9h3M34 9h3M43 9h2M17 10h1M23 10h1M25 10h2M37 10h1M44 10h1M16 11h1M24 11h1M27 11h3M38 11h1M44 11h1M15 12h1M27 12h1M29 12h1M39 12h1M42 12h1M44 12h1M15 13h1M26 13h1M28 13h2M31 13h1M40 13h2M44 13h1M15 14h1M27 14h1M30 14h3M44 14h1M15 15h1M30 15h1M32 15h1M45 15h1M15 16h1M29 16h1M31 16h2M45 16h1M16 17h4M22 17h3M30 17h1M33 17h2M37 17h3M42 17h5M16 18h1M33 18h4M46 18h1M16 19h6M24 19h3M32 19h1M34 19h2M37 19h1M39 19h3M43 19h4M16 20h1M33 20h1M36 20h3M46 20h1M15 21h1M36 21h1M38 21h2M45 21h1M16 22h1M20 22h1M35 22h1M37 22h1M44 22h1M17 23h2M21 23h1M36 23h1M43 23h1M17 24h1M22 24h5M29 24h3M39 24h4M16 25h1M23 25h1M41 25h1M15 26h1M22 26h1M40 26h1M14 27h1M21 27h1M39 27h1M13 28h1M20 28h1M38 28h1M12 29h1M19 29h1M37 29h1M11 30h1M18 30h1M23 30h1M27 30h3M36 30h1M11 31h1M17 31h1M22 31h1M24 31h1M26 31h1M30 31h6M9 32h3M16 32h1M21 32h1M25 32h1M8 33h1M15 33h1M20 33h1M7 34h1M14 34h1M19 34h1M7 35h1M13 35h1M18 35h1M7 36h1M12 36h1M17 36h1M4 37h4M11 37h1M16 37h1M3 38h1M10 38h1M15 38h1M2 39h1M9 39h1M14 39h1M1 40h1M8 40h1M13 40h1M1 41h1M7 41h1M12 41h1M1 42h1M6 42h6M1 43h1M5 43h1M10 43h1M1 44h1M4 44h1M9 44h1M3 45h1M8 45h1M3 46h5" />
<path stroke="#ffcc33" d="M26 2h5M25 3h8M24 4h4M29 4h11M23 5h5M30 5h5M40 5h2M22 6h3M26 6h3M31 6h3M39 6h1M41 6h2M40 7h1M20 8h3M28 8h3M33 8h2M40 8h2M43 8h1M23 9h1M18 10h3M22 10h1M24 10h1M30 10h3M35 10h2M43 10h1M17 11h3M21 11h2M25 11h1M31 11h3M36 11h2M43 11h1M16 12h4M23 12h2M26 12h1M32 12h3M37 12h2M43 12h1M16 13h5M23 13h1M25 13h1M33 13h3M38 13h2M42 13h2M16 14h2M19 14h3M24 14h3M28 14h1M34 14h3M39 14h5M16 15h2M20 15h3M26 15h2M29 15h1M35 15h3M40 15h5M16 16h3M21 16h3M26 16h1M28 16h1M30 16h1M36 16h3M41 16h4M27 17h2M17 18h4M23 18h3M28 18h3M32 18h1M38 18h3M43 18h3M31 19h1M17 20h6M25 20h3M30 20h2M34 20h1M40 20h6M16 21h8M26 21h3M32 21h2M35 21h1M41 21h4M17 22h2M21 22h4M27 22h3M32 22h1M34 22h1M36 22h1M41 22h3M22 23h4M28 23h3M33 23h2M37 23h1M40 23h3M16 24h1M34 24h2M15 25h1M24 25h4M30 25h3M35 25h1M38 25h3M14 26h1M23 26h6M31 26h3M37 26h3M13 27h1M22 27h8M32 27h3M36 27h3M12 28h1M21 28h10M33 28h5M11 29h1M14 29h1M20 29h12M34 29h3M13 30h3M19 30h4M24 30h3M30 30h3M34 30h2M13 31h2M18 31h4M25 31h1M8 32h1M13 32h1M17 32h4M7 33h1M16 33h4M9 34h3M15 34h4M9 35h2M14 35h4M9 36h1M13 36h4M3 37h1M12 37h4M2 38h1M11 38h4M1 39h1M4 39h3M10 39h4M3 40h3M9 40h4M2 41h3M8 41h4M2 42h2M2 43h1M6 43h4M5 44h4M4 45h4" />
<path stroke="#663300" d="M28 4h1M29 5h1M25 6h1M30 6h1M24 7h1M26 7h1M31 7h1M23 8h1M26 8h2M32 8h1M22 9h1M25 9h1M28 9h1M33 9h1M21 10h1M27 10h3M34 10h1M20 11h1M23 11h1M26 11h1M30 11h1M35 11h1M21 12h2M25 12h1M28 12h1M30 12h2M36 12h1M22 13h1M24 13h1M27 13h1M30 13h1M32 13h1M37 13h1M18 14h1M23 14h1M29 14h1M33 14h1M38 14h1M19 15h1M24 15h2M28 15h1M31 15h1M33 15h2M39 15h1M20 16h1M25 16h1M27 16h1M33 16h1M35 16h1M40 16h1M21 17h1M26 17h1M29 17h1M31 17h2M35 17h2M41 17h1M22 18h1M27 18h1M31 18h1M37 18h1M42 18h1M23 19h1M28 19h3M33 19h1M36 19h1M38 19h1M24 20h1M29 20h1M32 20h1M35 20h1M39 20h1M25 21h1M30 21h2M34 21h1M37 21h1M40 21h1M15 22h1M19 22h1M26 22h1M31 22h1M33 22h1M38 22h2M27 23h1M32 23h1M35 23h1M38 23h1M19 24h1M28 24h1M33 24h1M36 24h2M20 25h1M29 25h1M34 25h1M36 25h1M19 26h1M30 26h1M35 26h1M31 27h1M32 28h1M33 29h1" />
<path stroke="#cc9900" d="M28 5h1M29 6h1M36 6h3M30 7h1M39 7h1M31 8h1M32 9h1M41 9h1M33 10h1M41 10h1M34 11h1M41 11h1M20 12h1M35 12h1M21 13h1M36 13h1M22 14h1M37 14h1M18 15h1M23 15h1M38 15h1M19 16h1M24 16h1M39 16h1M15 17h1M20 17h1M25 17h1M40 17h1M21 18h1M26 18h1M41 18h1M22 19h1M27 19h1M42 19h1M23 20h1M28 20h1M24 21h1M29 21h1M46 21h1M25 22h1M30 22h1M40 22h1M45 22h1M15 23h1M19 23h1M26 23h1M31 23h1M39 23h1M44 23h1M18 24h1M20 24h1M27 24h1M32 24h1M38 24h1M43 24h1M17 25h3M21 25h1M28 25h1M33 25h1M37 25h1M42 25h1M16 26h3M20 26h1M29 26h1M34 26h1M36 26h1M41 26h1M15 27h5M30 27h1M35 27h1M40 27h1M14 28h5M31 28h1M39 28h1M13 29h1M15 29h3M32 29h1M38 29h1M12 30h1M16 30h1M33 30h1M37 30h1M12 31h1M15 31h1M23 31h1M27 31h3M36 31h1M12 32h1M14 32h1M22 32h1M24 32h1M26 32h1M30 32h6M9 33h5M21 33h1M25 33h1M8 34h1M12 34h1M20 34h1M8 35h1M11 35h1M19 35h1M8 36h1M10 36h1M18 36h1M8 37h2M17 37h1M4 38h5M16 38h1M3 39h1M7 39h1M15 39h1M2 40h1M6 40h1M14 40h1M5 41h1M13 41h1M4 42h1M12 42h1M3 43h1M11 43h1M2 44h1M10 44h1M1 45h1M9 45h1M2 46h1M8 46h1M3 47h5" />
<path stroke="#fefe65" d="M34 16h1" />
</svg>
