<svg xmlns="http://www.w3.org/2000/svg" viewBox="0 -0.5 19 16" shape-rendering="crispEdges">
<metadata>Made with Pixels to Svg https://codepen.io/shshaw/pen/XbxvNj</metadata>
<path stroke="#000000" d="M8 0h4M6 1h2M12 1h1M5 2h1M13 2h1M4 3h1M13 3h1M4 4h1M13 4h1M16 4h3M3 5h1M12 5h1M14 5h2M18 5h1M2 6h1M11 6h1M13 6h1M18 6h1M1 7h1M10 7h1M12 7h1M18 7h1M1 8h1M9 8h1M11 8h1M17 8h1M0 9h1M8 9h1M10 9h1M15 9h2M0 10h1M7 10h1M9 10h1M13 10h2M0 11h1M5 11h2M8 11h5M1 12h1M3 12h2M7 12h1M2 13h1M5 13h2M3 14h2" />
<path stroke="#9c0017" d="M8 1h1M6 2h1M5 3h1M7 3h1M7 4h1M12 4h1M5 5h3M10 5h2M5 6h6M5 7h5M6 8h1M8 8h1M7 9h1M6 10h1" />
<path stroke="#820014" d="M9 1h2M8 2h3M9 3h1M11 3h1M10 4h2M4 5h1M3 6h2M2 7h1M4 7h1M2 8h1M5 8h1M6 9h1" />
<path stroke="#810013" d="M11 1h1M8 3h1M10 3h1M12 3h1M9 4h1M1 9h1M1 10h1M5 10h1M1 11h1M4 11h1" />
<path stroke="#9d0016" d="M7 2h1M6 3h1M5 4h1M8 4h1M9 5h1M7 8h1" />
<path stroke="#810014" d="M11 2h2M2 12h1" />
<path stroke="#9c0015" d="M6 4h1M8 5h1" />
<path stroke="#ffd36c" d="M13 5h1M12 6h1M11 7h1M10 8h1M9 9h1" />
<path stroke="#999999" d="M16 5h1M15 6h1M15 7h1M15 8h1" />
<path stroke="#434343" d="M17 5h1M17 6h1M14 7h1M16 7h2M12 8h1M12 9h1M10 10h3" />
<path stroke="#424242" d="M14 6h1M16 6h1M13 7h1M13 8h2M16 8h1M11 9h1M13 9h2" />
<path stroke="#59000e" d="M3 7h1M4 8h1M3 9h3M3 10h2" />
<path stroke="#58000d" d="M3 8h1" />
<path stroke="#5a000e" d="M2 9h1M2 10h1M2 11h2" />
<path stroke="#ffd36b" d="M8 10h1M6 12h1M4 13h1" />
<path stroke="#ff9e00" d="M7 11h1M5 12h1M3 13h1" />
</svg>